<?xml version="1.0" encoding="UTF-8" standalone="no"?>
<!-- Created with Inkscape (http://www.inkscape.org/) -->

<svg
   version="1.1"
   id="svg1"
   viewBox="0 0 535.27631 408.16138"
   sodipodi:docname="IconPeople.svg"
   inkscape:version="1.4.2 (f4327f4, 2025-05-13)"
   xmlns:inkscape="http://www.inkscape.org/namespaces/inkscape"
   xmlns:sodipodi="http://sodipodi.sourceforge.net/DTD/sodipodi-0.dtd"
   xmlns="http://www.w3.org/2000/svg"
   xmlns:svg="http://www.w3.org/2000/svg">
  <defs
     id="defs1" />
  <g
     inkscape:groupmode="layer"
     inkscape:label="Image"
     id="g1"
     transform="translate(-6.2392233,-99.762088)">
    <path
       style="fill:currentColor;stroke-width:0.5"
       d="m 179.05477,507.76257 c -2.69321,-0.24278 -6.68694,-1.18563 -7.56694,-1.78643 -0.12241,-0.0836 -0.56617,-0.26773 -0.98615,-0.40925 -1.21438,-0.40922 -4.00217,-2.12591 -5.61802,-3.45952 l -1.48536,-1.22592 -1.21635,-1.5113 -1.21635,-1.51132 -0.78279,-1.55788 -0.78279,-1.5579 -0.52153,-1.78046 -0.52153,-1.78046 v -23.92488 -23.92488 l 0.40254,-3.67219 c 1.31459,-11.99234 2.71885,-18.46902 6.10417,-28.15347 14.5465,-41.61344 57.25619,-77.73789 107.33123,-90.78225 1.08032,-0.28142 7.47507,-1.88789 8.93387,-2.24433 l 1.47821,-0.36119 2.97292,1.97972 c 6.23465,4.15174 14.26449,8.3004 20.55494,10.61977 1.22406,0.45134 2.72633,1.0078 3.33836,1.23661 1.44254,0.53926 5.65056,1.87582 7.28875,2.31509 0.70382,0.18871 1.85392,0.49816 2.55574,0.68766 0.70182,0.1895 2.8801,0.68789 4.84062,1.1075 l 3.56456,0.76295 4.6737,0.66226 c 2.57054,0.36425 6.07581,0.78006 7.78951,0.92403 l 3.11578,0.26174 7.01055,-0.008 7.01055,-0.008 3.60067,-0.35232 c 7.02503,-0.68739 14.98319,-2.03631 19.71219,-3.34122 0.70384,-0.19423 1.85557,-0.50819 2.5594,-0.69771 2.26525,-0.60995 5.01961,-1.46923 6.73235,-2.10028 0.91806,-0.33824 2.57054,-0.94272 3.6722,-1.34329 6.46941,-2.35236 14.96705,-6.75899 21.33433,-11.06343 l 2.41698,-1.63394 2.03417,0.4766 c 4.87207,1.14154 9.49323,2.38432 13.64917,3.67074 3.84982,1.19168 5.62603,1.78308 8.52639,2.83902 1.16287,0.42337 2.86543,1.04189 3.78347,1.37447 0.91805,0.3326 1.96964,0.73746 2.33686,0.89968 0.36721,0.16223 2.11985,0.91125 3.89473,1.66447 1.7749,0.75324 3.5776,1.52587 4.00604,1.71697 1.3381,0.59687 10.52568,5.15223 11.46169,5.68291 0.48962,0.27761 1.69142,0.94807 2.67069,1.48992 6.98957,3.86757 17.18837,10.75366 22.72817,15.34581 0.38226,0.31687 1.1827,0.97673 1.77874,1.46635 10.43128,8.56881 21.96649,21.31869 27.98828,30.93543 0.45989,0.73444 1.3429,2.13654 1.96225,3.1158 2.39016,3.77908 7.96506,14.39594 7.97116,15.1803 0,0.0969 0.14179,0.44527 0.3134,0.77422 0.56937,1.09135 2.34031,5.60364 3.04109,7.74864 2.67419,8.18528 3.92533,13.35666 4.98036,20.58569 l 0.55218,3.78347 0.2428,3.56091 0.2428,3.56092 -0.0689,24.25872 -0.0689,24.25871 -0.59405,1.62598 -0.59405,1.62596 -0.92836,1.56265 -0.92837,1.56267 -1.47648,1.56516 -1.47649,1.56517 -1.34775,0.9617 c -2.91498,2.0801 -6.07959,3.457 -10.05564,4.37509 l -2.18382,0.50426 -170.47871,0.0285 -170.4787,0.0285 z M 22.040772,476.04643 c -2.564378,-0.42059 -3.556759,-0.69697 -5.52043,-1.53745 l -1.810506,-0.77493 -1.62026,-1.09582 -1.62026,-1.09581 -1.12337,-1.19672 C 8.1714801,468.02927 7.1299742,466.12128 6.5594277,463.40898 L 6.2392233,461.8868 v -18.89861 -18.8986 l 0.2236514,-2.84181 c 0.6652174,-8.4525 1.8876502,-14.67998 4.4459913,-22.64937 0.392952,-1.22408 0.799591,-2.42589 0.903649,-2.67068 0.104059,-0.24482 0.804036,-1.94738 1.555502,-3.78348 1.363864,-3.33238 3.978064,-8.74136 5.302247,-10.97072 0.3849,-0.64803 0.699827,-1.21946 0.699827,-1.26983 0,-0.0504 0.252212,-0.47161 0.560473,-0.93607 0.803356,-1.21043 0.883505,-1.33491 2.048392,-3.18133 0.579191,-0.91804 1.130185,-1.76933 1.224424,-1.89172 0.09425,-0.12242 0.797606,-1.08679 1.563025,-2.14304 2.969826,-4.09832 3.581387,-4.86987 7.033501,-8.87354 3.031966,-3.51638 10.035744,-10.24302 14.137622,-13.57815 5.401483,-4.39183 15.484414,-11.34088 18.722925,-12.90364 0.244812,-0.11813 1.146172,-0.61491 2.003012,-1.10394 0.856839,-0.48904 3.510829,-1.84665 5.897761,-3.01694 2.386921,-1.17025 4.490278,-2.20996 4.674124,-2.31045 0.183851,-0.10049 1.98656,-0.856 4.006033,-1.67891 2.019463,-0.82292 3.87206,-1.58423 4.116867,-1.69179 4.256636,-1.87034 13.15538,-4.59659 22.09747,-6.76987 l 1.39966,-0.34018 2.49509,1.63687 c 2.6294,1.72497 6.48806,4.02778 7.19513,4.29402 0.23032,0.0867 0.86944,0.41985 1.42027,0.7403 2.22836,1.29638 9.50629,4.32099 12.90831,5.36453 0.79564,0.24405 1.64693,0.53235 1.89174,0.64068 0.24481,0.10832 1.04601,0.34382 1.78045,0.52334 0.73444,0.17952 2.08648,0.52489 3.00452,0.76749 1.52829,0.40387 3.64722,0.88035 6.2316,1.40132 1.44104,0.29049 5.17591,0.80346 8.89878,1.22222 l 3.22358,0.36258 8.23811,-0.10519 8.23811,-0.10519 1.44661,-0.23697 c 0.79565,-0.13033 2.29791,-0.3499 3.33836,-0.4879 2.39267,-0.31737 5.2884,-0.82448 7.01055,-1.22768 5.05873,-1.18441 6.89419,-1.69217 10.57147,-2.92454 6.27068,-2.10149 10.88317,-4.17533 16.91433,-7.60496 0.55083,-0.31321 2.27435,-1.40011 3.83006,-2.41529 l 2.82858,-1.84582 1.40002,0.34027 c 5.49629,1.33585 8.54554,2.1703 12.19403,3.33697 1.40768,0.45013 3.04933,0.96929 3.64813,1.1537 l 1.08873,0.33531 -5.53987,2.82115 c -7.34627,3.74107 -11.44141,6.11712 -17.90507,10.38876 -28.16489,18.6133 -48.96293,44.5146 -58.4214,72.75639 l -1.63982,4.89625 -0.99799,3.89474 c -1.48549,5.79724 -2.31653,10.52524 -3.16859,18.02712 l -0.36653,3.22709 -0.0935,17.86021 -0.0935,17.8602 -63.357837,-0.031 L 23.71,476.3201 Z M 158.35696,306.65585 c -6.71506,-0.52498 -14.10241,-2.2067 -20.96596,-4.77294 l -3.0702,-1.14792 -3.1158,-1.52186 c -5.49,-2.68148 -11.04145,-6.20428 -15.23081,-9.66502 -9.4764,-7.8283 -16.640032,-16.87524 -22.030463,-27.82229 -0.964393,-1.9585 -1.920339,-3.96151 -2.124343,-4.45115 -0.204004,-0.48962 -0.454081,-1.09053 -0.555731,-1.33534 -0.101639,-0.2448 -0.331916,-0.79564 -0.511714,-1.22406 -2.033013,-4.84436 -4.314436,-13.93344 -5.167341,-20.58653 l -0.342376,-2.67068 -0.169024,-4.33986 -0.169029,-4.33986 0.117619,-3.22709 0.117615,-3.22707 -0.196022,-0.27821 -0.196027,-0.27818 h -0.987019 c -0.542863,0 -1.657296,-0.0964 -2.476514,-0.2142 -0.819219,-0.11783 -2.691303,-0.37259 -4.160181,-0.56614 -8.009442,-1.05538 -14.622856,-2.03096 -17.248166,-2.54435 -0.550833,-0.10771 -1.652485,-0.30876 -2.44813,-0.44678 -1.932894,-0.33533 -4.24749,-0.80713 -7.34438,-1.4971 -1.407676,-0.31362 -2.960013,-0.64626 -3.449632,-0.73918 -0.929333,-0.17639 -5.179129,-1.29698 -8.679728,-2.28866 -0.612034,-0.1734 -2.26452,-0.72466 -3.672192,-1.22507 -6.361475,-2.26135 -9.897887,-4.13604 -12.247748,-6.49263 l -1.008612,-1.01151 -0.517213,-1.10486 -0.517213,-1.10486 0.102246,-0.90708 0.10224,-0.9071 0.394885,-0.83217 0.394881,-0.83215 1.093336,-1.11657 1.093325,-1.11658 1.49327,-0.96166 c 0.821297,-0.5289 2.594925,-1.48866 3.941395,-2.13278 l 2.448128,-1.17115 4.228584,-1.39208 4.228584,-1.39209 4.451141,-1.12422 c 7.10396,-1.79425 16.815638,-3.66331 24.98203,-4.80791 1.377071,-0.19302 3.580385,-0.503 4.896257,-0.68887 3.912754,-0.55266 7.760235,-1.0168 11.072213,-1.3357 5.133422,-0.49427 12.384612,-1.21044 13.621611,-1.34535 l 1.158418,-0.12634 0.70684,-1.15366 c 0.38876,-0.63452 0.76908,-1.20373 0.84516,-1.26495 0.0761,-0.0612 0.58874,-0.71189 1.13927,-1.44596 4.78638,-6.38233 10.94029,-12.34232 17.71183,-17.15369 1.6018,-1.13812 3.55473,-2.45037 4.33987,-2.9161 0.78512,-0.46574 1.62779,-0.96929 1.87261,-1.11902 8.24523,-5.04262 20.81629,-8.97187 31.6031,-9.87796 l 3.1158,-0.26173 5.45264,0.1301 5.45265,0.1301 3.69381,0.55931 3.69381,0.55932 3.428,0.88355 c 4.8045,1.23833 10.42896,3.21106 12.98552,4.55455 l 0.65521,0.34431 -0.32137,0.10326 c -0.17675,0.0568 -2.22422,0.72615 -4.54996,1.48746 l -4.22858,1.3842 -3.0126,1.28244 c -6.81519,2.90118 -11.23719,5.87501 -13.91962,9.36103 l -0.99124,1.2882 -1.04935,2.17051 -1.04936,2.1705 -0.085,2.29667 -0.085,2.29666 0.26306,1.04473 c 0.14469,0.57461 0.6092,1.79389 1.03228,2.70956 l 0.76919,1.66483 1.22295,1.62483 1.22295,1.62484 1.49801,1.24295 c 7.78908,6.46294 23.71261,11.93574 46.23198,15.88963 2.20331,0.38684 5.0576,0.89182 6.34287,1.12215 2.68941,0.48197 13.45981,2.00055 18.58351,2.62016 l 1.33534,0.1615 0.15031,5.00654 c 0.13549,4.51275 0.46464,9.06624 0.75207,10.40357 l 0.1076,0.50075 h -0.86663 c -0.47666,0 -1.15459,0.0576 -1.5065,0.12796 l -0.63986,0.12798 -0.007,6.82694 -0.006,6.82693 -0.28712,2.44813 c -4.23049,36.07034 -28.19537,64.52106 -61.12565,72.56735 l -3.11578,0.76133 -3.67219,0.57944 -3.6722,0.57942 -6.12032,0.0648 c -3.36618,0.0356 -6.62106,0.0256 -7.2331,-0.0222 z m 185.27874,-3.9985 c -0.42841,-0.0475 -2.03082,-0.19795 -3.56091,-0.33445 -3.64095,-0.32482 -8.16154,-1.11682 -12.57447,-2.203 l -3.56091,-0.87647 -3.56092,-1.21301 C 283.76525,285.55831 258.535,252.69474 254.06224,211.65048 l -0.33955,-3.1158 -0.0557,-5.1188 c -0.0306,-2.81536 -0.0185,-6.31711 0.0268,-7.78168 l 0.0824,-2.66286 -4.64486,-0.60811 c -4.54997,-0.5957 -8.30446,-1.0995 -14.77123,-1.98212 -4.84937,-0.66188 -14.77971,-2.38645 -19.80757,-3.43994 -5.8127,-1.21795 -7.17683,-1.52926 -10.68274,-2.43788 -7.65048,-1.98279 -8.29229,-2.18233 -15.24515,-4.74008 -2.44179,-0.89826 -6.41291,-2.91996 -8.44885,-4.30133 l -1.69068,-1.14712 -1.31838,-1.43877 -1.31838,-1.43879 -0.25981,-0.81372 c -0.1429,-0.44755 -0.34787,-0.90887 -0.45548,-1.02515 l -0.19568,-0.21143 v -0.73746 c 0,-0.40561 0.093,-0.91136 0.2066,-1.12392 0.11365,-0.21254 0.4232,-0.86249 0.68789,-1.44432 l 0.48126,-1.05788 1.2595,-1.24973 1.25949,-1.24972 1.89174,-1.23731 c 5.11787,-3.34738 12.90911,-6.17324 25.81662,-9.36358 3.61749,-0.89413 5.0905,-1.20091 13.4647,-2.80425 12.24831,-2.34508 31.35431,-4.83734 48.62335,-6.34261 l 2.77658,-0.24203 0.15479,-0.27197 c 2.2665,-3.98247 9.56288,-12.42233 15.22086,-17.60625 16.19964,-14.84235 35.15771,-22.94814 57.63381,-24.64217 l 3.33836,-0.251612 4.11731,0.134873 4.1173,0.134879 3.89475,0.45013 3.89474,0.45015 3.44964,0.66895 c 23.46761,4.55088 44.24391,18.10734 59.04265,38.52513 l 1.7139,2.36466 2.94963,0.25366 c 7.40119,0.63649 20.94294,2.0947 26.20686,2.82202 14.74108,2.03679 18.21267,2.60095 28.04219,4.55708 l 5.45266,1.08512 5.6752,1.4432 5.67521,1.4432 4.00602,1.32577 c 5.71702,1.89202 9.37928,3.48649 12.99869,5.65935 l 1.87085,1.12313 1.41232,1.38479 1.41234,1.38481 0.5843,1.27626 0.58428,1.27627 -0.11329,1.41146 -0.11331,1.41146 -0.57039,0.9733 -0.5704,0.97331 -1.40766,1.31676 c -4.07898,3.81557 -11.5486,7.07118 -23.65466,10.30981 -8.7919,2.35203 -22.18899,4.98912 -32.82717,6.46171 -10.79643,1.4945 -18.32796,2.46171 -19.16644,2.46139 h -0.80549 l 0.0162,7.51131 0.016,7.51129 -0.28566,2.89325 c -0.5978,6.05484 -1.42841,10.87039 -2.91739,16.91433 l -0.87729,3.56091 -1.30803,3.89476 c -0.71944,2.14211 -1.93166,5.39701 -2.69386,7.2331 l -1.38582,3.33836 -2.06522,4.00603 c -15.13834,29.36444 -42.45325,48.78664 -73.90778,52.55192 l -2.89325,0.34634 -6.45414,0.0688 c -3.54979,0.0378 -6.80469,0.03 -7.23312,-0.0174 z"
       id="path1" />
  </g>
</svg>
