<?xml version="1.0" encoding="UTF-8" standalone="no"?>
<!-- Cleaned for React Native/Expo compatibility -->
<svg
   version="1.1"
   id="svg1"
   viewBox="0 0 1456.571 1204.5229"
   xmlns="http://www.w3.org/2000/svg">
  <g id="g1" transform="translate(-248.00469,-1658.1708)">
    <path
       style="fill:currentColor;stroke-width:0.5"
       d="m 320.66901,3167.024 c -21.5351,-3.2538 -38.4453,-11.0482 -51.8133,-23.8819 -11.1378,-10.6928 -16.9557,-21.3829 -19.8014,-36.3841 -0.9212,-4.8563 -1.0517,-15.377 -1.0496,-84.6386 0,-45.2315 0.2882,-83.6597 0.67,-89.7597 0.7438,-11.8832 2.578,-32.7878 3.01245,-34.3334 0.1546,-0.55 0.58545,-3.7198 0.9574,-7.044 1.28585,-11.4907 6.8536,-37.7381 11.0919,-52.2893 3.62685,-12.4517 4.54105,-15.3711 7.72435,-24.6667 18.34545,-53.5707 49.58925,-106.1085 91.81725,-154.3949 8.79365,-10.0552 35.0451,-36.2744 46.39095,-46.3339 30.1521,-26.7336 68.71455,-54.0979 103.66665,-73.563 3.85,-2.1441 8.95,-5.0229 11.33335,-6.3973 7.42145,-4.2797 39.08695,-19.6026 51.66665,-25.0014 32.7323,-14.0477 60.63068,-23.8196 97.66668,-34.2095 6.62865,-1.8596 25.29845,-6.4674 30.3587,-7.4927 l 4.02535,-0.8156 10.97465,7.297 c 10.28855,6.8408 15.0671,9.8001 23.9746,14.8474 3.98285,2.2568 30.8977,15.6959 35.0878,17.52 42.8821,18.6684 88.6119,30.1657 139.24555,35.009 17.3227,1.657 62.45675,1.6501 79.66665,-0.012 19.23176,-1.8575 37.82826,-4.6115 52.99996,-7.8487 5.1334,-1.0953 10.2334,-2.1622 11.3334,-2.3708 5.6272,-1.0673 28.0726,-7.4157 38.3333,-10.842 35.8212,-11.9616 69.3606,-28.354 98,-47.8974 l 8.3333,-5.6866 4,0.8062 c 11.48,2.314 31.1168,7.5016 53.3334,14.0894 12.8286,3.804 32.3672,10.4988 44.6666,15.3047 2.9334,1.1462 6.0834,2.3271 7,2.6242 3.4779,1.1272 27.5054,11.3303 36.7733,15.6155 102.7276,47.4978 186.0334,116.5242 241.88,200.4192 3.7832,5.6833 7.3966,11.2333 8.0298,12.3333 0.6331,1.1 2.3398,3.95 3.7926,6.3334 1.4528,2.3833 3.9385,6.7333 5.5238,9.6666 1.5852,2.9334 4.2852,7.8834 6,11 6.031,10.9617 11.492,22.8038 19.8296,43 11.1462,26.9999 21.0699,64.4346 25.449,96 3.6255,26.1338 3.7196,29.2796 3.7208,124.3334 0,83.6245 -0.065,88.614 -1.2329,93.5982 -6.9145,29.5011 -35.234,51.4811 -72.6476,56.3849 -8.448,1.1073 -1264.43034,0.7925 -1271.78499,-0.3188 z m 611.66663,-758.3742 c -131.843,-10.085 -246.28255,-94.1479 -300.3472,-220.6234 -17.28033,-40.4245 -27.26673,-82.4722 -30.63778,-129.0001 -0.7607,-10.4992 -0.80645,-40.0311 -0.0769,-49.6666 0.26375,-3.4834 0.38975,-6.4542 0.28,-6.6018 -0.1097,-0.1477 -8.52865,-1.2582 -18.7088,-2.4677 -65.4663,-7.7786 -120.09095,-17.2366 -165.72105,-28.6939 -58.93485,-14.798 -96.0243,-32.5936 -104.0615,-49.929 -1.01345,-2.1859 -2.11655,-4.4952 -2.45135,-5.1319 -0.7864,-1.4955 -0.7864,-6.856 0,-8.3515 0.3348,-0.6366 1.4379,-2.946 2.45135,-5.1319 11.4535,-24.704 80.06195,-49.1856 188.6066,-67.3007 14.1037,-2.3537 63.9241,-9.3263 81,-11.3363 13.6315,-1.6045 62.02703,-6.5097 72.66663,-7.3653 11.5173,-0.9261 10.94445,-0.721 13.7202,-4.9113 7.31875,-11.0484 23.1165,-30.598 34.17145,-42.2867 30.6766,-32.4354 63.11145,-56.6901 101.3958,-75.8234 86.2808,-43.1204 186.289,-47.5458 276.04591,-12.2151 63.0191,24.806 120.0127,69.8887 160.0664,126.6146 l 5.2262,7.4016 9.187,0.7993 c 183.4277,15.9602 309.3361,45.0654 341.2358,78.8808 5.8489,6.2001 7.9512,10.6554 7.9512,16.8502 0,6.1947 -2.1023,10.6501 -7.9512,16.8501 -28.1761,29.8682 -128.5011,55.8834 -282.248,73.1896 l -3.5325,0.3977 0.5325,7.4479 c 0.7788,10.8912 0.5501,41.8907 -0.3942,53.448 -2.955,36.1651 -10.001,69.5965 -21.4273,101.6667 -21.6013,60.6284 -56.8567,113.4385 -103.6459,155.2544 -46.9064,41.9206 -102.2432,69.8374 -162.717,82.0886 -10.9462,2.2176 -19.8217,3.582 -32.68921,5.0252 -11.10535,1.2455 -46.36125,1.8066 -57.92715,0.9219 z"
       id="path1" />
  </g>
</svg>
