<?xml version="1.0" encoding="UTF-8" standalone="no"?>
<!-- Created with Inkscape (http://www.inkscape.org/) -->

<svg
   version="1.1"
   id="svg1"
   viewBox="0 0 920 1292.0001"
   sodipodi:docname="IconCardFill.svg"
   inkscape:version="1.4.2 (f4327f4, 2025-05-13)"
   xmlns:inkscape="http://www.inkscape.org/namespaces/inkscape"
   xmlns:sodipodi="http://sodipodi.sourceforge.net/DTD/sodipodi-0.dtd"
   xmlns="http://www.w3.org/2000/svg"
   xmlns:svg="http://www.w3.org/2000/svg">
  <defs
     id="defs1" />
  <g
     inkscape:groupmode="layer"
     inkscape:label="Image"
     id="g1"
     transform="translate(-5.7015385,-4.5130519)">
    <path
       id="path1"
       style="fill:currentColor;stroke-width:0.5"
       d="M 5.7015385,4.5130519 V 650.51305 1296.5131 h 460.0000015 460 V 650.51305 4.5130519 h -460 z M 42.916339,36.513052 h 424.578201 424.5761 l 2.1543,3.287109 2.1524,3.28711 -0.01,605.712889 -0.01,605.71294 -2.6425,4.334 -2.6328,4.334 H 465.33004 39.576139 l -1.5996,-1.5996 -1.5996,-1.6016 V 651.77477 43.569693 l 3.2695,-3.527344 z m 18.1172,34 -0.3398,577.999998 c -0.1876,317.89998 -0.057,578.75145 0.291,579.66805 l 0.6328,1.666 h 404.709001 404.7109 l -0.3359,-579.66608 -0.334,-579.667968 h -404.666 z m 447.878901,148.595698 5.0879,2.03516 c 2.7985,1.11974 6.8405,2.03711 8.9824,2.03711 h 3.8946 l 0.8242,1.33203 0.8223,1.33398 h 4.0546 c 2.2293,0 5.9431,0.85029 8.254,1.88867 2.3108,1.03837 6.0011,2.19277 8.2011,2.56641 5.8018,0.98537 14,4.03367 14,5.20508 0,0.55389 1.258,1.00586 2.7949,1.00586 1.5368,0 4.3875,0.84653 6.334,1.88086 6.4119,3.4072 13.2397,6.11914 15.4063,6.11914 1.1725,0 2.1328,0.60065 2.1328,1.33398 0,0.73333 1.0012,1.33399 2.2266,1.33399 2.6587,0 19.5803,8.01522 20.2168,9.57617 0.2444,0.5995 1.4437,1.10951 2.666,1.13281 1.2222,0.0233 3.3871,0.92333 4.8105,2 1.4235,1.07668 3.567,1.95703 4.7617,1.95703 h 2.1719 l 3.9063,-4.9707 c 6.0062,-7.64219 12.4701,-14.95785 20.6113,-23.33008 l 7.4238,-7.63477 3.2637,-0.36523 3.2656,-0.36523 0.4453,3.10937 0.4434,3.10938 -1.7735,2.2246 c -0.9756,1.22286 -2.4739,3.4862 -3.33,5.0293 -2.0196,3.64029 -13.6388,25.45318 -16.0684,30.16602 -1.0322,2.00209 -2.4384,3.98776 -3.125,4.41211 l -1.25,0.77148 6.2207,5.58985 c 3.4212,3.07355 7.82,7.08658 9.7735,8.91992 1.9534,1.83333 6.8023,6.01049 10.7773,9.28125 15.0646,12.39547 33.2285,33.32837 33.2285,38.29492 0,0.29637 2.4007,3.7871 5.334,7.75781 2.9334,3.9707 5.332,7.79451 5.332,8.49805 0,0.70353 0.45,1.48016 1,1.72461 1.1025,0.49001 9.668,12.78083 9.668,13.87304 0,0.37589 1.256,2.00762 2.793,3.62696 1.5371,1.61934 3.3476,4.14466 4.0214,5.61133 0.6738,1.46666 2.3713,4.46601 3.7735,6.66601 1.4021,2.2 2.5925,5.23626 2.6465,6.7461 0.054,1.50983 0.9799,3.90853 2.0566,5.33203 1.0766,1.42349 1.977,3.86936 2,5.43554 0.023,1.56617 0.9377,4.56747 2.0332,6.66797 1.0954,2.10049 1.99,4.83222 2,6.07227 0,1.24006 0.6085,2.62686 1.3418,3.08008 0.7333,0.45323 1.3549,2.43872 1.3809,4.41211 0.026,1.97336 0.9051,5.08658 1.9531,6.91992 1.0481,1.83333 1.9252,4.94848 1.9512,6.92187 0.026,1.97338 0.6024,3.93125 1.2793,4.34961 0.6769,0.41836 1.6516,2.68235 2.1679,5.0332 0.5164,2.35086 1.384,5.19429 1.9258,6.31836 0.5418,1.12407 1.7721,4.14427 2.7363,6.71094 l 1.7539,4.66602 1.1153,24.66797 c 1.4434,31.9446 1.4639,39.5882 0.1523,53.46679 l -1.082,11.4668 -1.5,1.86523 c -0.8246,1.02654 -1.8443,3.66719 -2.2656,5.86719 -0.4212,2.2 -1.4346,7.6 -2.252,12 -0.8175,4.4 -2.0035,9.19935 -2.6367,10.66602 -0.6332,1.46666 -1.4183,5.48686 -1.7441,8.93164 l -0.5918,6.26172 -13.6348,27.73828 c -24.2504,49.33745 -24.4597,49.72342 -30.127,55.73242 -2.5206,2.67269 -4.582,5.12256 -4.582,5.44336 0,1.06291 -16.8673,19.86709 -28,31.21484 -9.8598,10.0503 -24.6051,22.67774 -26.4805,22.67774 -0.8353,0 -1.5195,0.47079 -1.5195,1.04492 0,1.06751 -23.6212,18.34739 -28.9492,21.17773 -1.6218,0.86152 -4.6211,2.46775 -6.666,3.56836 -2.0448,1.10061 -4.6188,2.35272 -5.7188,2.78321 -1.1,0.43049 -3.8,1.87908 -6,3.21875 -4.4788,2.72729 -18.9208,10.77619 -22,12.26171 -3.1323,1.51113 -13.464,4.12375 -19.332,4.88672 -2.9333,0.3814 -5.9347,1.14592 -6.668,1.70118 -0.7334,0.5552 -3.7327,1.42505 -6.666,1.93164 -2.9333,0.50658 -7.134,1.44213 -9.334,2.08007 -2.2,0.63794 -7.6,2.15829 -12,3.37696 -4.4,1.21867 -9.8416,2.76002 -12.0937,3.42578 l -4.0957,1.21094 h -37.1426 -37.1445 l -4.0957,-1.25 c -5.4524,-1.66245 -15.8901,-4.01644 -24.0938,-5.43555 -6.0306,-1.04321 -18.8159,-3.69718 -29.334,-6.08789 -2.2,-0.50004 -4.9,-1.60203 -6,-2.44922 -1.1,-0.84718 -7.4,-4.21846 -14,-7.49219 -6.6,-3.27373 -12.2993,-6.25247 -12.666,-6.61914 -0.3667,-0.36667 -3.0667,-1.78381 -6,-3.14844 -8.0427,-3.74159 -8.9535,-4.18372 -14,-6.80664 -12.7489,-6.62634 -9.3082,-8.34249 -30.666,15.29297 -6.2333,6.89808 -13.9392,15.11994 -17.1231,18.26953 -7.2681,7.18961 -10.5077,7.51479 -7.0273,0.70703 0.651,-1.27338 2.6771,-5.61509 4.5039,-9.64843 1.8269,-4.03333 6.6506,-14.23269 10.7188,-22.66602 4.0683,-8.43333 7.5898,-16.57667 7.8242,-18.09766 l 0.4258,-2.76562 -7.9121,-7.23438 c -13.0019,-11.88742 -29.0577,-28.1816 -34.7442,-35.25976 -2.9334,-3.65118 -6.0489,-7.39589 -6.9219,-8.32227 -3.5832,-3.80221 -17.7461,-24.17533 -17.7461,-25.52734 0,-0.80254 -0.5873,-1.45898 -1.3066,-1.45898 -0.7194,0 -1.6843,-1.50066 -2.1445,-3.33399 -0.4601,-1.83334 -1.2653,-3.33398 -1.7891,-3.33398 -0.5239,0 -2.2938,-2.68536 -3.9336,-5.96875 -1.6398,-3.28338 -3.5461,-6.31954 -4.2363,-6.7461 -0.6902,-0.42656 -1.2559,-1.88967 -1.2559,-3.25195 0,-1.36227 -0.45,-2.67742 -1,-2.92188 -0.9438,-0.41947 -3.2312,-4.88557 -7.5664,-14.77734 -1.0445,-2.38334 -3.4432,-7.8004 -5.332,-12.03711 -1.8888,-4.23671 -3.4356,-8.51754 -3.4356,-9.51367 0,-0.99612 -0.8947,-3.53037 -1.9902,-5.63086 -1.0955,-2.1005 -2,-4.83222 -2,-6.07226 0,-1.24007 -0.6085,-2.62686 -1.3418,-3.08008 -0.7334,-0.45323 -1.334,-2.04708 -1.334,-3.54297 0,-1.4959 -0.8557,-4.61106 -1.9023,-6.92188 -2.8979,-6.39824 -7.8669,-62.01453 -7.8809,-88.20117 l -0.01,-12 2.291,-9.33398 c 1.2602,-5.13333 2.8056,-12.44923 3.4355,-16.25782 0.63,-3.80859 1.6287,-7.70532 2.2188,-8.66015 0.5901,-0.95482 1.5156,-4.43894 2.0566,-7.74219 2.1203,-12.94522 3.7663,-20.7884 4.8984,-23.33984 0.6508,-1.46667 3.738,-8.06602 6.8594,-14.66602 3.1214,-6.6 6.6539,-14.09935 7.8516,-16.66601 1.1977,-2.56667 2.6277,-4.86689 3.1777,-5.11133 0.55,-0.24445 1,-1.52213 1,-2.83789 0,-1.31577 0.9,-3.13786 2,-4.05078 1.1,-0.91292 2,-2.49866 2,-3.52344 0,-1.02478 1.5007,-4.24034 3.334,-7.14453 1.8334,-2.90419 3.334,-5.79935 3.334,-6.4336 0,-0.63425 1.2723,-2.29441 2.8281,-3.6914 1.5559,-1.39699 5.089,-5.84166 7.8516,-9.875 l 5.0234,-7.33203 29.875,-29.33399 c 32.7461,-32.15118 36.9026,-35.84671 43.7539,-38.91016 1.1,-0.49184 2.3007,-1.23804 2.668,-1.6582 1.2762,-1.4602 9.5601,-5.43164 11.3301,-5.43164 0.9795,0 1.9802,-0.46619 2.2246,-1.03711 0.2444,-0.57091 10.3453,-5.94967 22.4453,-11.95117 l 22,-10.91211 5.0137,-0.86719 c 2.7581,-0.47738 5.3443,-1.40057 5.7461,-2.05078 0.4019,-0.6502 2.2636,-1.18164 4.1386,-1.18164 1.8749,0 6.1894,-0.87013 9.5879,-1.93359 3.3984,-1.06347 8.5804,-2.50336 11.5137,-3.19922 2.9334,-0.69586 8.032,-2.04323 11.332,-2.99414 l 6,-1.72852 43.9395,-0.4414 z m -45.8789,13.05859 -6.332,0.92383 c -3.4833,0.50792 -11.4347,1.44189 -17.668,2.07617 -12.0854,1.22977 -25.8512,4.08758 -27.4648,5.70118 -0.5385,0.53856 -2.8288,0.99939 -5.0899,1.02539 -2.2611,0.026 -5.612,0.90509 -7.4453,1.95312 -1.8334,1.04803 -5.2141,1.92713 -7.5136,1.95313 -2.2995,0.026 -5.8995,0.94357 -8,2.03906 -2.1005,1.09548 -4.8342,1.995 -6.0743,2 -1.2401,0.005 -2.5832,0.54105 -2.9863,1.19336 -0.4032,0.65231 -2.69,1.47824 -5.0801,1.83398 -3.9127,0.58235 -8.5684,2.033 -16.3457,5.09571 -1.4667,0.57758 -4.1667,1.47174 -6,1.98632 -1.8334,0.51457 -7.7653,3.85312 -13.1836,7.41797 -5.4182,3.56485 -10.318,6.48047 -10.8886,6.48047 -0.5707,0 -1.238,0.45 -1.4825,1 -0.2444,0.55 -4.9453,3.99935 -10.4453,7.66602 -5.5,3.66666 -10.1988,7.11797 -10.4433,7.66797 -0.2444,0.55 -1.1444,1.03261 -2,1.07421 -0.8555,0.0416 -6.0567,3.51324 -11.5567,7.7129 l -10,7.63476 -0.416,2.87891 -0.416,2.8789 9.0078,9.28125 9.0078,9.2793 4.7422,-3.50781 c 2.6078,-1.92967 9.1959,-7.27192 14.6406,-11.8711 5.4446,-4.59918 10.694,-8.36132 11.666,-8.36132 0.972,0 1.7676,-0.50353 1.7676,-1.11915 0,-0.61561 1.35,-1.79617 3,-2.62304 1.65,-0.82687 7.2007,-3.90056 12.334,-6.83008 8.6477,-4.93509 30.7281,-16.16044 35.334,-17.96289 1.1,-0.43046 2.9,-1.31573 4,-1.96875 3.6327,-2.1565 8.5764,-4.14012 15.332,-6.15039 l 6.668,-1.98438 7.6035,-0.0137 c 4.1821,-0.008 8.9815,-0.61143 10.666,-1.3418 1.6845,-0.73034 7.5625,-1.95533 13.0625,-2.7207 14.1033,-1.96259 18.7148,-2.62355 23.668,-3.39648 l 4.332,-0.67578 V 246.2806 Z m 9.334,0.0645 v 14.08007 14.08008 l 4.334,0.66992 c 2.3834,0.36794 6.4334,1.01774 9,1.44336 2.5667,0.42562 8.4395,1.33015 13.0527,2.01172 4.6133,0.68158 9.1133,1.69589 10,2.25391 0.8868,0.55802 4.914,1.45491 8.9473,1.99219 11.6169,1.54749 25.0219,4.32853 26.1113,5.41797 0.5491,0.54902 2.326,1 3.9473,1 h 2.9473 l 1.6601,2 c 0.9129,1.1 2.4986,2 3.5234,2 1.0248,0 4.1006,1.35 6.836,3 2.7355,1.65 7.3732,4.11446 10.3066,5.47851 2.9333,1.36405 6.234,2.9804 7.334,3.58984 1.1,0.60949 5.0574,1.14245 8.7949,1.18555 l 6.795,0.0781 4.539,-4.4668 c 2.4958,-2.45705 6.388,-6.53274 8.6504,-9.05664 l 4.1152,-4.58789 -1.4843,-1.27735 c -1.4396,-1.23946 -4.2027,-2.60607 -16.7442,-8.27929 -11.5939,-5.24453 -27.4015,-12.57051 -34.0195,-15.76758 -3.6772,-1.77641 -8.0459,-3.23047 -9.709,-3.23047 -1.663,0 -5.1778,-0.9 -7.8105,-2 -2.6327,-1.1 -7.0128,-2 -9.7344,-2 -2.7215,0 -5.3951,-0.45 -5.9414,-1 -0.5462,-0.55 -5.2974,-1.77148 -10.5567,-2.71484 -5.2593,-0.94335 -12.8612,-2.32032 -16.8945,-3.0586 -4.0333,-0.73827 -11.9826,-1.6791 -17.666,-2.09179 z m 162.8965,57.61523 c -0.5351,0.008 -2.1522,2.70027 -3.5977,5.98828 -1.4477,3.29305 -3.0828,5.993 -3.6328,6 -0.55,0.007 -1,1.13876 -1,2.51563 0,1.37688 -0.8327,3.19549 -1.8515,4.04101 -1.0188,0.84553 -2.1654,3.16784 -2.5469,5.16211 l -0.6934,3.62696 7.666,7.66601 c 9.7323,9.7333 8.2421,9.85832 21.0567,-1.76758 2.3638,-2.14452 5.2732,-3.89843 6.4648,-3.89843 h 2.166 l -2.4628,3.8789 c -1.3554,2.13356 -4.7972,6.39735 -7.6485,9.47461 l -5.1855,5.59375 1.2187,0.85938 c 0.6702,0.47252 3.2949,3.55937 5.832,6.85937 2.5372,3.29999 5.221,6.64402 5.9649,7.43164 0.7439,0.78761 2.8542,3.3756 4.6875,5.75196 1.8334,2.3761 4.9736,6.23207 6.9785,8.56835 2.005,2.33628 3.654,4.62927 3.666,5.09571 0.012,0.46643 2.4222,4.44324 5.3555,8.83594 2.9334,4.39269 5.332,8.67294 5.332,9.51171 0,0.83877 1.5007,3.9005 3.334,6.80469 1.8333,2.90419 3.334,5.69455 3.334,6.20117 0,0.88151 6.8328,15.9499 9.4238,20.78125 0.683,1.27338 1.2422,3.40248 1.2422,4.73242 0,1.32995 0.5231,2.98888 1.1621,3.68555 0.6391,0.69667 2.1927,4.86563 3.4531,9.26563 1.2605,4.4 3.1381,10.42104 4.1719,13.3789 1.0338,2.95785 1.8789,7.4876 1.8789,10.06641 v 4.68945 l 1.5059,1.50391 1.5039,1.50586 0.6816,15.42773 0.6817,15.42774 h 14.4804 14.4805 l -0.016,-7.66602 -0.016,-7.66601 -1.9688,-7.33399 c -1.0826,-4.03334 -1.9744,-9.84849 -1.9844,-12.92187 l -0.017,-5.58789 -1.2032,-0.74219 c -0.6612,-0.40863 -1.6198,-4.34542 -2.1308,-8.74805 -0.511,-4.40263 -1.4697,-8.33942 -2.1309,-8.74805 -0.6612,-0.40863 -1.2012,-2.73817 -1.2012,-5.17773 v -4.43555 l -1.9921,-3.82031 c -1.0955,-2.1005 -2,-5.17599 -2,-6.83594 0,-1.65995 -0.529,-4.0606 -1.1641,-5.33398 -1.9428,-3.89584 -4.4454,-11.43352 -5.1953,-15.64844 -0.3914,-2.2 -2.0175,-6.09935 -3.6113,-8.66601 -1.5952,-2.56667 -3.3012,-5.56797 -3.793,-6.66797 -1.0072,-2.25316 -2.9817,-5.47394 -6.9434,-11.33203 -1.4878,-2.2 -3.8886,-6.40065 -5.3359,-9.33399 -1.4474,-2.93333 -3.0165,-5.63333 -3.4863,-6 -0.4698,-0.36666 -2.1588,-3.06666 -3.754,-6 -1.5951,-2.93333 -4.0994,-7.37363 -5.5644,-9.86719 -2.6645,-4.53514 -53.7573,-56.1229 -55.5938,-56.13281 z m -191.6699,8 -7.6778,2 c -4.2232,1.1 -9.3003,2.02088 -11.2812,2.04688 -1.9809,0.026 -5.1002,0.90509 -6.9336,1.95312 -1.8333,1.04803 -4.9485,1.92713 -6.9219,1.95313 -1.9734,0.026 -3.9589,0.64753 -4.4121,1.38086 -0.4532,0.73333 -2.1394,1.3517 -3.7461,1.375 -1.6068,0.0233 -4.0864,0.92332 -5.5097,2 -1.424,1.07668 -3.8133,1.95703 -5.3126,1.95703 -1.499,0 -5.735,1.44775 -9.4121,3.21679 -3.6772,1.76904 -9.3855,4.48132 -12.6855,6.02735 -3.3,1.54604 -9.0014,4.60495 -12.668,6.79687 -3.6667,2.19192 -7.7167,4.34971 -9,4.79492 -1.2834,0.4452 -2.332,1.20953 -2.332,1.69922 0,0.48969 -1.8843,2.00387 -4.1856,3.36328 -3.8438,2.27058 -19.8144,17.33465 -19.8144,18.68946 0,0.32265 5.3725,6.17265 11.9394,13 6.5669,6.82735 14.5164,15.18796 17.6661,18.58008 l 5.7265,6.16796 2.9043,0.16602 2.9063,0.16602 2,-2 c 1.1,-1.1 2.5918,-2 3.3164,-2 0.7246,0 1.5172,-0.45 1.7617,-1 0.6449,-1.45112 12.9551,-9.66797 14.4844,-9.66797 0.7119,0 1.2949,-0.46792 1.2949,-1.04102 0,-0.5731 4.05,-3.12244 9,-5.66601 4.95,-2.54356 9.3057,-5.02768 9.6797,-5.51954 0.374,-0.49186 2.3294,-1.30841 4.3457,-1.81445 2.0162,-0.50605 3.9953,-1.45337 4.3984,-2.10547 0.403,-0.65209 2.0773,-1.18554 3.7207,-1.18554 1.6434,0 3.5573,-0.56654 4.2539,-1.25782 0.6967,-0.69128 3.9676,-1.98966 7.2676,-2.88476 l 6,-1.62696 14.334,-0.53125 14.332,-0.5332 v -29.25 -29.25 h -9.7187 z m 28.7734,0 v 29.23633 29.23437 l 11,0.59375 c 12.1035,0.65219 21.3403,2.45159 24.0274,4.68165 l 1.7421,1.44531 8.6153,0.48047 c 4.7385,0.26439 9.2956,0.59699 10.1269,0.73828 0.8314,0.1413 3.7818,-2.29349 6.5567,-5.41016 2.7749,-3.11666 9.7666,-10.86303 15.5371,-17.21484 5.7705,-6.35181 11.6516,-13.02447 13.0703,-14.82813 l 2.5801,-3.27929 -2.295,-1.83985 c -3.7281,-2.98673 -7.4403,-4.77069 -12.0058,-5.77344 -2.3592,-0.51818 -4.2891,-1.49486 -4.2891,-2.16992 v -0.36914 c -0.7001,-0.24965 -1.3234,-0.53907 -1.873,-0.85937 h -1.5469 c -1.8816,0 -4.7323,-0.70468 -6.334,-1.56641 -1.6018,-0.86173 -5.0114,-2.00418 -7.5781,-2.53906 -2.5666,-0.53488 -7.9666,-1.97563 -12,-3.20117 -4.0333,-1.22555 -10.3333,-2.7405 -14,-3.36719 -3.6666,-0.62669 -9.368,-1.75525 -12.668,-2.50781 -3.3,-0.75256 -8.8486,-1.39391 -12.332,-1.42578 z m -203.6777,18.66602 c -0.72,0 -3.3376,2.50081 -5.8164,5.55664 -2.4788,3.05583 -6.7543,7.97826 -9.502,10.9375 -2.7477,2.95924 -5.3374,6.45908 -5.7558,7.77734 -0.4184,1.31826 -1.3204,2.39649 -2.0039,2.39649 -0.6839,0 -1.2442,0.84978 -1.2442,1.88867 0,1.03889 -0.45,2.08954 -1,2.33398 -1.2047,0.53544 -9.666,12.82995 -9.666,14.04492 0,0.47082 -0.8464,1.8032 -1.8789,2.96094 -1.9425,2.17815 -9.2499,15.58673 -18.5859,34.10352 -2.9584,5.86666 -5.7816,10.96731 -6.2735,11.33398 -0.4919,0.36667 -1.2333,2.46602 -1.6484,4.66602 -1.2078,6.40222 -3.8273,15.80503 -5.1035,18.3164 -0.6471,1.27338 -1.1778,3.78454 -1.1778,5.58008 0,1.79555 -0.695,4.95317 -1.5449,7.01758 -0.8498,2.0644 -1.991,7.05261 -2.5352,11.08594 -0.5442,4.03334 -1.6365,11.23334 -2.4277,16 -1.6206,9.7637 -1.9798,29.73502 -0.5605,31.15429 l 0.9316,0.93164 14.0684,-0.37695 14.0683,-0.375 0.3672,-23.29883 0.3652,-23.30078 1.3008,-1.29883 c 0.7153,-0.71531 1.2986,-2.23051 1.3086,-3.36718 0,-1.13666 0.9045,-3.78623 2,-5.88672 1.0955,-2.10049 2.0122,-5.09984 2.0352,-6.66602 0.023,-1.56617 0.9233,-4.01205 2,-5.43554 1.0767,-1.4235 1.957,-3.68309 1.957,-5.01954 0,-1.33646 0.5112,-3.47076 1.1367,-4.74414 1.0303,-2.09773 2.1875,-4.73016 6.586,-14.98242 4.5566,-10.62072 6.547,-14.66881 10.1582,-20.66601 2.2079,-3.66667 4.4875,-6.86689 5.0664,-7.11133 0.579,-0.24445 1.0527,-0.99959 1.0527,-1.67774 0,-1.33641 16.6754,-25.0257 19.1543,-27.21093 2.4972,-2.20136 12.8457,-16.46484 12.8457,-17.70508 0,-1.57441 -18.0439,-18.96289 -19.6777,-18.96289 z m 317.4824,20.59179 c -0.8727,-0.0116 -3.134,1.88192 -6.7754,5.70508 -21.4794,22.55162 -42.6083,44.94615 -49.916,52.90625 -4.646,5.06072 -11.7877,12.65355 -15.8691,16.87305 -4.0818,4.21951 -10.3821,11.10397 -14,15.30078 -3.6182,4.19681 -7.6752,8.90464 -9.0176,10.46094 -1.9997,2.31823 -26.6767,28.77655 -32.4961,34.84179 -2.5821,2.69113 -0.5874,3.32032 10.5097,3.32032 h 10.4629 l 2.8438,1.66797 c 1.5638,0.91667 4.4871,3.16667 6.4961,5 2.0091,1.83333 5.5208,5.03445 7.8047,7.11328 l 4.1523,3.77929 0.1055,6.88672 0.1054,6.88672 0.7676,-2 c 0.4228,-1.1 2.1061,-3.8 3.7403,-6 1.6341,-2.2 3.3816,-5.35 3.8828,-7 0.5012,-1.65 1.4704,-3 2.1543,-3 0.6839,0 1.2441,-1.1645 1.2441,-2.58789 0,-1.42339 0.5203,-2.90966 1.1563,-3.30273 0.636,-0.39308 14.1809,-26.97792 30.0996,-59.07813 34.321,-69.20879 30.4655,-61.47486 33.0703,-66.36523 1.1719,-2.2 2.4749,-4.9 2.8945,-6 0.4195,-1.1 1.2803,-2.9 1.9141,-4 4.3581,-7.56341 5.9049,-11.39179 4.6699,-11.40821 z m 21.3027,14.07618 c -1.7094,0 -3.1074,0.48697 -3.1074,1.08203 0,0.59505 -1.0507,2.26149 -2.334,3.70312 -2.1578,2.42398 -3.6658,5.27018 -8.416,15.88086 -0.9849,2.2 -2.0044,4.45 -2.2656,5 -1.7277,3.63796 4.1907,-0.4715 12.8008,-8.88867 l 10.1172,-9.89063 -1.8438,-3.44336 -1.8418,-3.44335 z m -291.4218,10.99804 -8.8418,8.86524 c -11.2247,11.25328 -14.2592,15.68531 -26.1153,38.13672 -3.4853,6.6 -6.8757,12.56895 -7.5332,13.26562 -0.6575,0.69667 -1.1953,2.52641 -1.1953,4.06641 0,1.54 -0.527,3.3717 -1.1699,4.06836 -0.643,0.69667 -2.4606,5.16497 -4.0391,9.93164 -1.5784,4.76666 -3.4058,9.86731 -4.0625,11.33398 -0.6568,1.46667 -1.5196,4.16666 -1.916,6 -0.3965,1.83333 -1.6981,7.23333 -2.8926,12 -1.1945,4.76666 -2.6582,12.86666 -3.2539,18 -0.5956,5.13333 -1.5069,10.99587 -2.0254,13.02734 l -0.9433,3.69336 28.2754,-0.35937 28.2773,-0.36133 1.8555,-5.33398 c 1.0203,-2.93333 1.864,-7.41293 1.875,-9.95508 0.011,-2.54215 0.8646,-7.04215 1.8984,-10 1.0338,-2.95785 2.8891,-8.82572 4.1231,-13.04102 1.234,-4.21531 2.7895,-8.00081 3.455,-8.41211 0.6655,-0.41131 1.209,-1.75484 1.209,-2.98437 0,-1.22953 1.4483,-5.24273 3.2168,-8.91992 1.7685,-3.67719 3.5635,-7.5875 3.9903,-8.6875 0.4268,-1.1 1.5297,-3.18402 2.4511,-4.63282 0.9213,-1.44879 3.5279,-5.6602 5.793,-9.35742 2.2651,-3.69721 4.9731,-7.6119 6.0176,-8.69922 3.4899,-3.63322 6.5312,-9.18795 6.5312,-11.92968 v -2.71289 h -1.2422 c -0.6839,0 -1.67,-1.35 -2.1894,-3 l -0.9434,-3 -15.3027,-15.50196 z m 304.5332,2.11328 c -2.988,0.12731 -7.6295,5.2439 -20.7286,18.26953 -23.4552,23.32376 -22.6375,19.48531 -7.7656,36.43946 7.1325,8.13102 13.5817,18.44181 13.5977,21.73828 0.01,1.2239 0.8545,3.9239 1.8867,6 3.3838,6.80613 7.5515,18.54003 8.4434,23.77344 0.375,2.2 1.166,4.61078 1.7558,5.35742 0.5899,0.74663 1.7699,6.74728 2.6231,13.33398 0.8533,6.5867 1.7756,12.72591 2.0507,13.64258 l 0.5,1.66602 h 27.2969 27.2969 l 0.6914,-1.11719 c 1.9134,-3.09586 -3.504,-42.29693 -6.2207,-45.01367 -0.5386,-0.53856 -0.9883,-2.23004 -0.9883,-3.75782 0,-1.52778 -0.9046,-4.49521 -2,-6.5957 -1.0955,-2.10049 -1.9922,-4.60184 -1.9922,-5.55859 0,-0.95675 -0.8627,-3.43953 -1.9179,-5.51563 -1.0551,-2.07609 -2.9233,-6.17409 -4.1524,-9.10742 -4.0704,-9.71463 -14.838,-30.90836 -16.5957,-32.66601 -1.8266,-1.82663 -9.334,-13.56604 -9.334,-14.59571 0,-0.65078 -0.4849,-1.3825 -1.0781,-1.62695 -0.5932,-0.24444 -3.6646,-3.89466 -6.8262,-8.11133 -3.0622,-4.08413 -4.3625,-6.64758 -6.5429,-6.55469 z m 22.0898,12.33399 c 0.017,0.0245 0.034,0.0484 0.051,0.0723 1.1232,1.64303 2.3535,3.27222 2.8262,3.74805 -0.062,-0.0962 -0.1225,-0.19265 -0.1836,-0.28906 -0.7848,-1.26689 -1.7029,-2.42475 -2.6934,-3.53125 z m -208.5957,6.55469 -13.1895,6.50976 c -7.2544,3.58087 -18.3106,8.98043 -24.5683,11.99805 l -10.3438,4.98828 c -0.1172,0.15703 -0.2356,0.31411 -0.3535,0.4707 -0.7472,0.97705 -1.5235,1.92724 -2.3418,2.83985 l -0.7031,1.18945 c -1.3005,2.20151 -2.9292,4.00391 -3.6211,4.00391 -0.3429,0 -0.6548,0.1422 -0.8828,0.37304 0.4831,0.34332 0.9726,0.67787 1.4629,1.01172 1.0886,0.77286 2.0586,1.68931 3.0625,2.56445 0.8424,0.9055 1.6962,1.79189 2.584,2.65235 0.8889,0.86684 1.7554,1.75082 2.5683,2.68945 0.6283,0.67927 1.0771,1.52513 1.7285,2.18164 0.677,0.69346 1.3344,1.40756 1.9883,2.12305 0.7343,0.82423 1.611,1.49492 2.3965,2.26758 0.891,0.85083 1.8534,1.61923 2.7481,2.46679 0.9404,0.88191 1.815,1.83352 2.6835,2.78516 0.2591,0.26122 0.5191,0.52258 0.7793,0.7832 12.346,11.78302 11.8803,10.70762 16.8301,7.06641 4.2755,-3.1452 9.6381,-5.88493 18.791,-9.59766 2.9333,-1.18986 6.377,-2.73383 7.6504,-3.43164 1.2734,-0.69781 3.4026,-1.26953 4.7325,-1.26953 1.33,0 2.9888,-0.55258 3.6855,-1.22851 0.6966,-0.67592 3.3649,-1.76278 5.9316,-2.41602 l 4.668,-1.18945 0.3672,-20.91602 0.3672,-20.91601 h -14.5117 z m 38.2871,0 v 20 20 l 1,-0.0156 c 0.55,-0.009 8.6971,-7.54044 18.1055,-16.73633 l 17.1074,-16.71875 -1.6035,-1.93164 -1.6035,-1.93164 h -3.7578 -3.7579 l -0.8242,-1.33398 -0.8242,-1.33203 h -11.9199 z m -98.5723,38.65039 c -3.0864,3.53006 -8.3688,9.24861 -17.0761,18.55468 l -3.0157,3.22266 c -0.054,0.12971 -0.1073,0.2594 -0.1621,0.38867 -0.7707,1.9014 -1.6697,3.74528 -2.3906,5.66602 -0.7269,1.83691 -1.3772,3.714 -2.3418,5.44531 -0.5959,1.13785 -1.2561,2.23401 -1.9707,3.29688 -0.6272,1.6777 -1.0715,3.63714 -1.0898,5.02929 -0.026,1.97338 -0.6476,3.95888 -1.3809,4.41211 -0.7333,0.45322 -1.334,2.34838 -1.334,4.21094 0,1.86256 -0.8536,5.27706 -1.8965,7.58789 -1.0428,2.31083 -2.2648,6.60183 -2.7168,9.53516 -0.452,2.93333 -1.1628,7.59604 -1.58,10.36328 l -0.7598,5.0332 23.7227,-0.36523 23.7207,-0.36524 1.5859,-9.41211 c 0.8717,-5.17695 2.1951,-10.57695 2.9394,-12 0.7455,-1.42304 2.4714,-4.98853 3.836,-7.92187 1.3646,-2.93333 2.7818,-5.63333 3.1484,-6 0.3667,-0.36666 2.5852,-4.51396 4.9297,-9.2168 l 4.0508,-8.12695 c -0.2861,-0.22044 -0.5638,-0.4509 -0.8106,-0.7168 -0.703,-0.5692 -1.3902,-1.15479 -2.0878,-1.73047 -1.0403,-0.80965 -2.0403,-1.68117 -2.9336,-2.65234 -0.7632,-0.79173 -1.5071,-1.60276 -2.2657,-2.39844 -0.7581,-0.77494 -1.5345,-1.53113 -2.2851,-2.3125 -0.6974,-0.8337 -1.4995,-1.59548 -2.2715,-2.35938 -0.9219,-0.90107 -1.9739,-1.66153 -2.873,-2.58789 -0.8342,-0.87607 -1.8653,-1.55569 -2.625,-2.50976 -0.6698,-0.73298 -1.3434,-1.46168 -2.0352,-2.17383 -0.6423,-0.7352 -1.2225,-1.51746 -1.8223,-2.28711 -0.6659,-0.7731 -1.3855,-1.49395 -2.1133,-2.20898 -0.7868,-0.76643 -1.5945,-1.51531 -2.2832,-2.375 -0.7769,-0.67742 -1.5234,-1.38859 -2.3457,-2.01172 -0.4911,-0.33466 -0.9817,-0.6709 -1.4668,-1.01367 z m 191.4532,10.90625 c -1.433,0.0105 -2.5955,0.9008 -3.3828,2.77539 -1.001,2.38333 -3.3136,7.63464 -5.1387,11.66797 -1.825,4.03334 -4.2057,9.43333 -5.291,12 -1.0852,2.56667 -2.8889,6.37512 -4.0078,8.46484 l -2.0352,3.80078 v 6.20899 6.20703 l 2.1543,5.15625 c 1.1846,2.83518 2.1543,6.38396 2.1543,7.88672 0,1.50269 0.9914,3.82884 2.2051,5.16992 l 2.207,2.4375 h 19.793 19.7949 V 493.8041 483.09512 l -2,-4.78711 c -1.1,-2.63267 -2,-5.86396 -2,-7.18164 0,-1.31768 -0.8449,-4.09578 -1.877,-6.17188 -1.0322,-2.0761 -2.6747,-5.57343 -3.6484,-7.77343 -6.6924,-15.12004 -14.2466,-24.47765 -18.9277,-24.44336 z m -112.7246,6.44336 -0.8223,1.33203 c -0.4532,0.73333 -2.2157,1.33398 -3.916,1.33398 h -3.0918 l -1.6602,2 c -0.9129,1.1 -2.7504,2 -4.084,2 -1.3336,0 -2.7671,0.55356 -3.1855,1.23047 -0.4183,0.67691 -2.5545,1.62412 -4.7461,2.10547 -2.1916,0.48135 -3.9844,1.42845 -3.9844,2.10351 0,0.67507 -0.9212,1.22657 -2.0468,1.22657 -2.404,0 -8.8366,3.88906 -10.3165,6.23632 -0.5662,0.89808 -1.8351,2.44067 -2.8222,3.42774 -0.987,0.98707 -2.2156,3.11663 -2.7285,4.73242 -0.5128,1.6158 -1.4919,2.9375 -2.1758,2.9375 -0.6839,0 -1.2422,1.12704 -1.2422,2.50391 0,1.37688 -0.9,3.24919 -2,4.16211 -1.1,0.91292 -2,2.49546 -2,3.51562 0,1.02016 -0.5212,2.89654 -1.1563,4.16992 -2.0105,4.03159 -4.3912,11.44688 -5.6484,17.58594 l -1.2168,5.93555 0.7578,6.73047 c 0.4165,3.70161 1.0329,8.08047 1.3692,9.73047 l 0.6113,3 1.6406,-0.006 1.6426,-0.008 4.375,-8.99414 c 2.4066,-4.94636 4.8902,-9.89218 5.5195,-10.99218 0.6294,-1.1 2.2609,-4.40066 3.625,-7.33399 1.364,-2.93334 2.9305,-5.5329 3.4805,-5.77734 0.55,-0.24445 1,-1.55961 1,-2.92188 0,-1.36228 0.5832,-2.8382 1.2969,-3.27929 0.7137,-0.4411 2.2191,-2.72595 3.3457,-5.07813 l 2.0488,-4.27734 19.2871,-19.66602 19.2871,-19.66601 h -5.2207 z m 0.023,45.33203 -0.7422,2.33398 c -0.408,1.28333 -2.0969,3.83269 -3.7559,5.66602 -1.6576,1.83334 -4.0642,5.60402 -5.3476,8.3789 l -2.334,5.04492 v 7.8379 7.83789 l 7.666,8.00976 7.668,8.00781 7.5879,0.10938 7.5879,0.10742 0.8242,-1.33398 c 0.4533,-0.73333 1.9887,-1.33203 3.4121,-1.33203 h 2.5879 v -1.3086 c 0,-0.71937 1.4986,-1.68439 3.332,-2.14453 1.8333,-0.46014 3.334,-1.27087 3.334,-1.80078 0,-0.52992 1.5007,-1.76492 3.334,-2.74609 l 3.332,-1.78516 v -12.42969 -12.43164 l -3,-3.5293 c -1.65,-1.94124 -4.8696,-5.54542 -7.1562,-8.00976 l -4.1582,-4.48242 h -12.086 z m 82.918,7.875 -1.3848,1.72851 c -0.7622,0.95138 -1.8008,3.08047 -2.3066,4.73047 -0.5059,1.65 -1.4785,3 -2.1621,3 -0.684,0 -1.2442,0.84462 -1.2442,1.87695 0,1.03232 -1.4345,4.78298 -3.1875,8.33399 -1.7529,3.55101 -5.7883,11.85384 -8.9687,18.45117 l -5.7832,11.99414 -19.0313,18.77344 -19.0293,18.77344 v 2.26562 2.26563 l 3.9336,-2.03321 c 2.1636,-1.11883 5.0053,-2.03515 6.3145,-2.03515 2.1103,0 13.6821,-4.94096 19.0859,-8.15039 1.1,-0.65333 3.1994,-1.71905 4.666,-2.36719 5.368,-2.37219 20.6786,-19.61103 23.8145,-26.81445 0.4789,-1.1 2.3401,-4.40065 4.1367,-7.33399 l 3.2676,-5.33398 0.037,-17.33203 0.037,-17.33399 -1.0977,-1.73047 z m -344.4317,20.125 0.096,11 c 0.1778,20.60712 5.1283,52.92066 9.3946,61.3164 0.6471,1.27338 1.1777,3.70898 1.1777,5.41211 0,1.70312 0.8804,4.26011 1.957,5.6836 1.0767,1.4235 1.977,3.94747 2,5.60742 0.023,1.65995 0.6128,4.05865 1.3106,5.33203 0.6978,1.27338 2.2637,4.71511 3.4785,7.64844 2.0219,4.88183 4.9382,11.62006 7.2148,16.66797 0.4961,1.1 1.8594,3.8 3.0313,6 1.1718,2.2 2.475,4.9 2.8945,6 0.4195,1.1 1.3421,2.9 2.0508,4 0.7086,1.1 4.3055,6.98505 7.9922,13.07812 3.6867,6.09307 7.4608,11.89117 8.3867,12.88477 0.926,0.9936 3.1457,3.71399 4.9336,6.04687 1.7879,2.33287 6.8104,8.08607 11.1621,12.7832 l 7.9121,8.53907 h 2.3008 c 2.3119,0 3.9407,-1.21214 14.373,-10.69336 7.2999,-6.6343 7.2606,-6.82645 -3.8632,-18.63867 -9.7769,-10.38195 -19.6057,-23.33048 -24.7598,-32.61524 -6.7772,-12.20861 -15.7224,-31.56972 -20.3516,-44.05273 -0.5439,-1.46667 -1.9721,-4.93606 -3.1738,-7.71094 -1.2016,-2.77488 -2.1836,-5.85636 -2.1836,-6.84766 0,-0.99129 -0.8967,-3.5206 -1.9922,-5.62109 -1.0955,-2.10049 -2,-4.83416 -2,-6.07422 0,-1.24005 -0.6085,-2.62489 -1.3418,-3.07812 l -1.332,-0.82422 v -25.92192 -25.92187 h -15.334 z m 60,0 -0.014,1 c -0.032,2.3789 4.3442,30.75825 5.3964,35 3.752,15.12552 5.8877,21.9082 10.918,34.66797 4.6399,11.76966 15.9989,35.16919 17.3672,35.77734 0.55,0.24444 1,1.20395 1,2.13281 0,0.92886 1.8,4.17393 4,7.21094 2.2,3.03701 4,6.1275 4,6.86719 0,0.73968 0.45,1.34665 1,1.34765 0.55,0.001 3.0993,3.14595 5.666,6.98828 2.5667,3.84232 6.016,8.48431 7.666,10.31641 1.65,1.83209 3,3.81818 3,4.41211 v 1.08008 l 2.0821,-1.16602 c 1.1448,-0.64063 5.8729,-4.85154 10.5078,-9.35742 l 8.4277,-8.19141 0.9102,-0.20507 c 0.6689,-0.57664 1.3611,-1.12604 2.0586,-1.66602 1.093,-0.84918 2.1831,-1.6969 3.2402,-2.58984 0.2345,-0.19065 0.4697,-0.38094 0.7051,-0.57032 0.6732,-0.64086 1.3331,-1.29401 1.9765,-1.96484 0.9052,-1.02668 1.8309,-2.03648 2.7324,-3.06641 0.8391,-0.8859 1.6873,-1.75986 2.4668,-2.69921 0.7595,-0.92521 1.4976,-1.86562 2.2872,-2.76563 0.4322,-0.46431 0.8552,-0.93552 1.291,-1.39648 0.4374,-0.46272 0.8784,-0.84883 1.3144,-1.16407 v -4.1289 -5.97461 l -5.041,-4.94727 c -6.045,-5.93226 -10.7666,-12.3953 -14.3281,-19.61328 -1.4474,-2.93333 -3.0809,-5.53289 -3.6309,-5.77734 -0.55,-0.24444 -1,-1.4807 -1,-2.7461 0,-1.26539 -0.8803,-3.46517 -1.957,-4.88867 -1.0767,-1.42349 -1.977,-3.5886 -2,-4.8125 -0.023,-1.2239 -1.0435,-4.2252 -2.2676,-6.66797 -4.137,-8.25565 -4.4414,-9.06622 -4.4414,-11.84375 0,-1.52483 -0.6906,-4.06257 -1.5351,-5.64062 -0.8446,-1.57805 -2.0043,-6.49032 -2.5762,-10.91406 -0.5719,-4.42375 -1.4175,-9.84297 -1.8789,-12.04297 -0.4614,-2.2 -1.1131,-5.35 -1.4492,-7 l -0.6114,-3 h -28.6426 z m 84,0 0.016,1.66797 c 0.01,0.91666 0.9018,4.96666 1.9844,9 1.0826,4.03333 1.9849,10.03203 2.0039,13.33203 0.039,6.66573 2.489,14.70163 6.5586,21.50976 1.4764,2.46976 3.9021,7.00397 5.3907,10.07617 1.4882,3.07219 3.3076,5.95769 4.0429,6.41211 0.7352,0.45442 1.3379,1.91837 1.3379,3.25196 0,1.33359 0.9,3.17106 2,4.08398 1.1,0.91292 2,2.78719 2,4.16406 v 2.50196 h 1.334 1.332 v 3.60156 3.59961 l 1.2617,-1.26758 c 0.6939,-0.69667 3.4665,-5.46628 6.1602,-10.59961 2.6937,-5.13333 6.0879,-11.58618 7.543,-14.33984 1.455,-2.75366 3.1824,-5.33982 3.8398,-5.7461 0.6573,-0.40629 1.1953,-1.61425 1.1953,-2.68554 0,-1.07129 1.5468,-4.39947 3.4375,-7.39453 l 3.4375,-5.44532 -1.4336,-3.52734 c -0.7886,-1.94037 -2.0096,-8.02734 -2.7148,-13.52734 -0.7052,-5.5 -1.6761,-11.95065 -2.1563,-14.33399 l -0.873,-4.33398 h -23.8477 z m 217.9824,0 -1.6582,5.3125 c -0.9119,2.92178 -1.6562,7.29572 -1.6562,9.71875 0,5.81852 -4.4184,18.17364 -7.8965,22.08203 -1.5237,1.71229 -2.78,3.51229 -2.791,4 -0.011,0.4877 -2.4122,3.58672 -5.334,6.88672 -6.6724,7.53619 -7.1194,6.34871 8.6875,23.10351 l 13.334,14.13281 2.4277,0.0488 c 1.3357,0.0271 3.1749,-0.70051 4.086,-1.61718 2.4427,-2.45763 16.1954,-21.34082 17.2382,-23.66797 1.0637,-2.37392 3.9599,-7.05802 4.9454,-8 4.9398,-4.72171 7.9663,-14.76772 9.3437,-31.01563 0.6365,-7.50791 1.5577,-15.29974 2.0469,-17.3164 l 0.8887,-3.66797 h -21.8301 z m 165.2676,0 -1.5097,5.66797 c -1.8042,6.77646 -4.0867,20.61282 -5.6641,34.33203 -0.6324,5.5 -1.8088,11.6895 -2.6133,13.7539 -0.8045,2.06441 -1.4629,6.68021 -1.4629,10.25586 v 6.5 l -1.332,0.82422 c -0.7333,0.45323 -1.334,1.94541 -1.334,3.31641 0,1.37101 -0.9,3.39414 -2,4.49414 -1.1,1.1 -2,2.62197 -2,3.38281 0,1.97728 -4.474,11.38819 -5.666,11.91797 -0.55,0.24444 -1,1.32772 -1,2.40625 0,1.7564 -4.129,9.84098 -10.7988,21.14844 -1.2977,2.2 -3.6647,6.40064 -5.2598,9.33398 -1.5952,2.93333 -3.2908,5.63333 -3.7676,6 -0.4768,0.36666 -2.0472,2.91602 -3.4902,5.66602 -1.4431,2.75 -2.9942,5 -3.4453,5 -0.4511,0 -1.9499,2.1013 -3.3321,4.66797 -1.3822,2.56667 -2.8775,4.66601 -3.3222,4.66601 -0.4447,0 -2.9885,3.16648 -5.6543,7.03711 -2.6658,3.87063 -6.0242,8.29956 -7.461,9.8418 l -2.6113,2.80469 2.4102,2.83593 v 0.002 c 0.1473,0.13771 0.2946,0.27575 0.4414,0.41406 0.9048,0.88527 1.8163,1.76197 2.6777,2.6914 0.8233,0.6659 1.5422,1.44333 2.3242,2.1543 0.8458,0.80975 1.6561,1.65954 2.5528,2.41406 1.0492,0.96427 2.1126,1.91062 3.2129,2.81641 1.3166,0.99207 2.6014,2.02639 3.8574,3.09375 1.1289,0.92147 2.1702,1.94758 3.2187,2.95898 0.3608,0.33911 0.7134,0.68569 1.0645,1.03516 2.319,-2.60881 7.3164,-9.21038 12.7129,-16.86914 6.9666,-9.88723 13.4173,-18.81627 14.334,-19.8418 0.9167,-1.02553 1.666,-2.24687 1.666,-2.71484 0,-0.46798 1.3521,-2.7613 3.0039,-5.0957 4.5704,-6.45897 5.7416,-8.56009 12.4004,-22.24414 11.4737,-23.57855 12.5957,-26.03608 12.5957,-27.57813 0,-0.84671 1.0024,-3.53771 2.2265,-5.98047 4.0948,-8.17166 4.4393,-9.06097 4.4493,-11.42383 0,-1.29328 0.9045,-4.06942 2,-6.16992 1.0954,-2.10049 1.9921,-5.21564 1.9921,-6.92187 0,-1.70623 0.5809,-3.46226 1.293,-3.90235 0.7121,-0.44008 1.6912,-3.78841 2.1758,-7.4414 0.4845,-3.65298 1.4024,-6.96393 2.0391,-7.35742 l 1.1582,-0.7168 v -6.42383 -6.42578 l 2,-4.78711 2,-4.78516 V 525.89 512.51305 h -13.043 z m -95.916,0.66797 -0.3359,6 c -0.6143,10.98957 -3.2583,28.00386 -4.4688,28.75195 -0.657,0.40608 -1.1953,2.15413 -1.1953,3.88476 0,1.73062 -0.8629,4.84578 -1.918,6.92188 -3.1566,6.21087 -6.082,13.41424 -6.082,14.97656 0,0.80584 -0.6007,1.46485 -1.334,1.46485 -0.7334,0 -1.332,0.85005 -1.332,1.89062 0,2.22484 -4.219,10.5767 -5.668,11.2207 -0.55,0.24445 -1.0104,1.14445 -1.0254,2 -0.028,1.664 -7.2061,12.80932 -14.3066,22.21485 -3.184,4.21764 -4.7281,5.80237 -2.9336,9.26367 1.1185,1.07977 2.1883,2.20767 3.2715,3.32227 0.973,1.06335 1.9511,2.12251 2.8984,3.20898 0.8858,1.04074 1.8622,2.00003 2.791,3.00195 0.8225,0.83579 1.5762,1.72531 2.3086,2.64063 0.7261,0.72978 1.3112,1.58396 1.9922,2.35156 0.5928,0.75832 1.3221,1.38818 2.0215,2.04297 1.1173,1.14254 2.0192,2.48035 2.9277,3.79101 0.7673,1.18889 1.6979,2.25912 2.5664,3.37305 0.8766,1.08207 1.7682,2.15176 2.668,3.21485 0.6608,0.83541 1.3626,1.6418 2.0879,2.42187 0.677,0.74104 1.3572,1.47827 2.0332,2.2207 0.8717,1.0624 1.7213,2.14222 2.5703,3.22266 0.7258,0.77633 1.2067,1.75977 1.9473,2.51953 0.5744,0.61492 1.0728,1.29319 1.5879,1.95703 8.4058,-8.8718 17.2957,-18.26516 21.3359,-22.54687 4.8439,-5.13333 9.8831,-11.43333 11.1992,-14 1.316,-2.56666 3.7426,-6.90317 5.3926,-9.63868 1.65,-2.73541 3.02,-6.03607 3.043,-7.33398 0.023,-1.2979 0.9233,-3.52378 2,-4.94726 1.0767,-1.4235 1.957,-3.67351 1.957,-5 v -2.41211 h 1.334 1.332 v -3.07813 c 0,-1.69317 0.8823,-4.24447 1.959,-5.66797 1.0766,-1.42349 1.977,-3.86933 2,-5.43555 0.023,-1.56617 0.9377,-4.56552 2.0332,-6.66601 1.0954,-2.10049 1.99,-5.13355 2,-6.74023 0,-1.60672 0.6085,-3.29287 1.3418,-3.7461 l 1.334,-0.82422 v -3.96289 c 0,-2.18027 0.8405,-5.97947 1.8691,-8.4414 l 1.8711,-4.47657 0.4629,-16.48047 0.4629,-16.48046 h -28 z m -99.5371,62 c -1.3873,0 -8.3726,3.70811 -13.8086,7.33203 -5.9152,3.94332 -8.8695,5.70255 -13.3203,7.92382 l -4,1.9961 -9.334,0.37305 -9.334,0.375 -0.3633,23.66601 -0.3652,23.66602 7.6973,-0.041 7.6992,-0.043 2.5879,-1.95703 2.5879,-1.95898 h 5.0781 5.0781 v -1.0293 c 0,-0.98267 8.1052,-3.51791 16.668,-5.21484 4.2449,-0.84122 16.666,-8.34386 16.666,-10.06641 0,-0.56175 0.5574,-1.02148 1.2402,-1.02148 0.6828,0 4.6747,-3.22114 8.8692,-7.15625 l 7.625,-7.1543 -15.0664,-14.8457 c -8.2866,-8.16489 -15.5785,-14.84375 -16.2051,-14.84375 z m 54.8457,16.41796 c -0.01,0.0192 -0.017,0.0395 -0.023,0.0586 0.01,-0.0182 0.021,-0.0364 0.031,-0.0547 v -0.002 -0.002 z m -114.6426,4.72461 -2.0957,2.09571 c -1.1523,1.15238 -2.6387,2.09375 -3.3047,2.09375 -0.666,0 -7.8246,6.58885 -15.9062,14.64062 l -14.6934,14.63867 v 3.12696 3.125 l 6.334,2.04492 6.334,2.04492 11.666,0.18945 11.666,0.18946 v -22.09375 z m 110.2324,28.15625 -2.5996,2.22852 c -1.5857,1.3595 -3.5449,3.07136 -4.3554,3.80469 -0.8104,0.73334 -3.4323,2.83464 -5.8242,4.66797 -2.3925,1.83333 -5.0573,3.93267 -5.9219,4.66601 -1.5345,1.30165 -6.0968,3.5572 -15.5313,7.67969 -5.0308,2.19824 -8.0162,3.39923 -17.332,6.96484 -3.3,1.26307 -6.9769,2.7925 -8.1699,3.40039 -1.1931,0.60789 -4.3506,1.51566 -7.0157,2.01563 -2.665,0.49996 -5.1743,1.43964 -5.5761,2.08984 l -0.7305,1.1836 h -4.9883 -4.9863 l -1.4102,1.41015 -1.4101,1.41016 -7.5235,0.77539 -7.5234,0.77734 v 28.63477 28.63672 l 3,-0.90821 c 1.65,-0.49904 9.5993,-1.72861 17.666,-2.73242 23.1051,-2.87517 35.8907,-6.29313 47.6485,-12.73633 1.2733,-0.69781 3.5233,-1.26757 5,-1.26757 h 2.6855 v -1.24415 c 0,-0.68389 1.35,-1.62129 3,-2.08203 3.1726,-0.88591 8.4747,-3.28325 29.0234,-13.12695 l 12.6895,-6.07812 17.0879,-18.02735 c -0.027,-0.0308 -0.055,-0.061 -0.082,-0.0918 -0.633,-0.78604 -1.2246,-1.60717 -1.8965,-2.36133 -0.8067,-0.92544 -1.49,-1.93889 -2.2617,-2.89258 -0.735,-0.93609 -1.4742,-1.86809 -2.2129,-2.80078 -0.6696,-0.73551 -1.3383,-1.46973 -2.0137,-2.19922 -0.7853,-0.86289 -1.5714,-1.73136 -2.291,-2.65039 -0.969,-1.14569 -1.9271,-2.29899 -2.8692,-3.4668 -0.9468,-1.2303 -1.977,-2.40119 -2.8144,-3.71289 -0.5996,-0.87309 -1.2121,-1.74842 -1.8789,-2.56836 -0.89,-0.83978 -1.8095,-1.65401 -2.5723,-2.61719 -0.7265,-0.85334 -1.4029,-1.75065 -2.1719,-2.56836 -0.6207,-0.77578 -1.2507,-1.5328 -1.9589,-2.23242 -0.9759,-1.06242 -2.0126,-2.06868 -2.9415,-3.17383 -0.8525,-0.98507 -1.7448,-1.93488 -2.6171,-2.90234 -1.1061,-1.14183 -2.2041,-2.29341 -3.3555,-3.39062 -0.7459,-0.71329 -1.5228,-1.3922 -2.3223,-2.04493 -0.2148,-0.15557 -0.429,-0.31196 -0.6426,-0.46875 z m -235.9863,22.49414 c -0.3127,0.23991 -0.6271,0.4777 -0.9433,0.71289 -0.024,0.0274 -0.048,0.0544 -0.072,0.082 -1.554,1.77973 -3.1959,2.58323 -4.5742,2.66601 -1.287,1.23688 -2.7238,2.65248 -4.209,4.15235 l -8.6524,8.73828 1.709,2.26172 c 0.9406,1.24345 2.5679,3.29646 3.6153,4.5625 2.6834,3.24355 9.5488,-5.71279 9.5488,-12.45704 0,-1.08847 0.5199,-2.54943 1.1602,-3.24609 1.1001,-1.20008 2.3255,-5.42617 2.4179,-7.47266 z m 67.7266,9.02149 -11.4766,11.92578 c -15.3182,15.91689 -25.5911,27.15351 -26.9023,29.42578 l -1.0742,1.86133 2.4062,0.77344 c 3.3827,1.08776 6.9451,2.48383 12.7871,5.01367 2.7749,1.20165 5.8564,2.18555 6.8477,2.18555 0.9913,0 3.5206,0.8967 5.6211,1.99218 2.1005,1.09548 5.1335,1.995 6.7402,2 1.6067,0.005 3.2929,0.60652 3.7461,1.33985 l 0.8223,1.33398 h 4.0097 c 2.2049,0 5.3201,0.71527 6.9219,1.58984 2.9102,1.58904 8.1329,2.64972 25.4473,5.16602 5.0608,0.73549 10.1595,1.89852 11.332,2.58398 1.1726,0.68549 4.0835,1.26481 6.4668,1.28711 l 4.332,0.0391 V 695.8471 667.18109 h -4.4551 c -2.4501,0 -7.4001,-0.89427 -11,-1.98633 -3.5999,-1.09206 -8.532,-1.992 -10.9609,-2 -4.2184,-0.0138 -15.2522,-2.89443 -20.916,-5.46094 -1.4666,-0.66461 -4.4739,-1.32895 -6.6816,-1.47461 z m -110.5957,31.14453 -9.0215,9.61133 -9.0215,9.61133 v 2.04297 2.04101 l 8.9981,9.06836 8.998,9.06641 1.9414,-0.37305 c 1.0683,-0.20572 3.5998,-2.77155 5.625,-5.70117 l 3.6817,-5.32617 0.045,-2.92188 c 0.024,-1.60672 0.5783,-3.25129 1.2304,-3.6543 0.6521,-0.40302 1.5867,-2.33466 2.0782,-4.29297 l 0.8945,-3.56054 -7.7246,-7.80664 z m 344.4824,4.5957 c -2.3925,0.0558 -5.0026,2.22624 -10.377,6.57032 -12.5788,10.16748 -23.8072,18.20703 -25.4257,18.20703 -0.7646,0 -1.3887,0.46468 -1.3887,1.03125 0,0.56657 -2.25,2.21573 -5,3.66406 -2.75,1.44832 -5.7946,3.3843 -6.7637,4.30273 -0.969,0.91844 -2.5682,1.66993 -3.5547,1.66993 -0.9865,0 -1.9938,0.45 -2.2382,1 -0.399,0.89763 -15.017,8.27484 -21.7774,10.99023 -1.4667,0.58911 -4.8576,2.03226 -7.5351,3.20703 -2.6775,1.17477 -5.5358,2.13477 -6.3516,2.13477 -0.8157,0 -2.5255,0.52121 -3.7988,1.15625 -4.4736,2.23096 -11.6947,4.51904 -16.3145,5.16992 -2.5667,0.36162 -5.3535,1.20712 -6.1934,1.87891 -0.8387,0.67178 -4.6053,1.58528 -8.371,2.03124 -3.7658,0.44602 -7.1643,1.32643 -7.5528,1.95508 l -0.707,1.14258 h -16.5879 -16.5879 v 14.13867 14.13867 l 19.666,-0.98242 19.668,-0.98242 5.166,-1.82226 c 2.8422,-1.00247 7.3924,-1.82422 10.1113,-1.82422 2.7189,0 5.3939,-0.44854 5.9434,-0.99805 0.9122,-0.91226 7.1297,-2.68519 19.4453,-5.54492 4.7572,-1.10463 7.2865,-2.08514 19.7031,-7.64063 3.8701,-1.73155 7.9201,-3.14843 9,-3.14843 1.08,0 1.9629,-0.60066 1.9629,-1.33399 0,-0.73333 0.6327,-1.33398 1.4063,-1.33398 2.195,0 13.0041,-5.17065 13.9258,-6.66211 0.4545,-0.73526 1.9906,-1.33789 3.414,-1.33789 1.4234,0 2.5879,-0.46273 2.5879,-1.0293 0,-0.56657 2.25,-2.20406 5,-3.63867 2.75,-1.43461 8.1247,-4.87124 11.9434,-7.63672 3.8187,-2.76548 7.5191,-5.02734 8.2226,-5.02734 0.7035,0 1.4783,-0.45432 1.7227,-1.00977 0.5208,-1.18342 11.1856,-9.6582 12.1543,-9.6582 0.3628,0 2.9768,-2.07767 5.8086,-4.61719 4.9195,-4.4119 8.3882,-7.44989 10.8261,-9.45117 l -0.066,-0.0645 c -0.934,-0.90147 -1.8554,-1.82271 -2.8652,-2.63867 -1.2269,-1.04445 -2.4874,-2.04565 -3.7695,-3.02148 -1.1302,-0.93506 -2.236,-1.8998 -3.3106,-2.89844 -0.9585,-0.82551 -1.8649,-1.70765 -2.7617,-2.59961 -0.9302,-0.86128 -1.8271,-1.75564 -2.7715,-2.60156 -0.7323,-0.80405 -1.5236,-1.54566 -2.2988,-2.30664 -0.9156,-0.86294 -1.8398,-1.71645 -2.7988,-2.53125 -0.011,-0.01 -0.022,-0.0195 -0.033,-0.0293 -0.1583,-0.0151 -0.3171,-0.0213 -0.4766,-0.0176 z m -299.584,34.11133 -5.1367,6.16406 c -2.8258,3.39042 -6.1873,7.38265 -7.4707,8.8711 -2.4742,2.86976 -2.8326,4.78059 -1.5313,8.17187 l 0.8028,2.0918 12.289,6.01758 c 6.7588,3.30975 13.2614,6.01758 14.4512,6.01758 1.1898,0 2.4792,0.5102 2.8652,1.13476 0.386,0.62456 3.5709,2.15442 7.0782,3.40039 3.5073,1.24597 8.1769,3.06631 10.3769,4.04492 5.6238,2.5016 17.8398,6.08594 20.7422,6.08594 1.3391,0 2.8046,0.60066 3.2578,1.33399 l 0.8242,1.33203 h 5.168 c 2.8423,0 6.8575,0.74215 8.9219,1.64843 l 3.7539,1.64844 21.332,0.75 c 11.7333,0.41274 22.3847,0.87189 23.668,1.01953 l 2.332,0.26758 v -14.66605 -14.66797 l -17.666,-0.0527 -17.666,-0.0527 -10,-1.98047 c -19.6875,-3.90148 -29.1282,-6.59692 -31.5313,-9 -0.5026,-0.50258 -2.0732,-0.91406 -3.4902,-0.91406 -3.7193,0 -21.6844,-8.20081 -33.6465,-15.35938 -2.9334,-1.75542 -6.3218,-3.21625 -7.5293,-3.24804 z" />
  </g>
</svg>
